<svg width="130" height="91" viewBox="0 0 130 91" fill="none" xmlns="http://www.w3.org/2000/svg">
<g clip-path="url(#clip0_501_5)">
<path d="M127.282 14.2115C125.784 8.61463 121.386 4.21635 115.789 2.71815C105.655 8.13644e-07 65 0 65 0C65 0 24.3456 8.13644e-07 14.2114 2.71815C8.61463 4.21635 4.21635 8.61463 2.71815 14.2115C8.13644e-07 24.3456 0 45.5023 0 45.5023C0 45.5023 8.13644e-07 66.659 2.71815 76.7933C4.21635 82.3901 8.61463 86.7883 14.2114 88.2862C24.3456 91.0045 65 91.0046 65 91.0046C65 91.0046 105.655 91.0045 115.789 88.2862C121.386 86.7883 125.784 82.3901 127.282 76.7933C130 66.659 130 45.5023 130 45.5023C130 45.5023 129.99 24.3456 127.282 14.2115Z" fill="#FF0000"/>
<path d="M114 31H46V41H114V31Z" fill="white"/>
<path d="M36 31H16V41H36V31Z" fill="white"/>
<path d="M16 51H84V61H16V51Z" fill="white"/>
<path d="M94 51H114V61H94V51Z" fill="white"/>
</g>
<defs>
<clipPath id="clip0_501_5">
<rect width="130" height="91.0046" fill="white"/>
</clipPath>
</defs>
</svg>
